{"asset":{"version":"2.0","generator":"Blockbench 4.12.6 glTF exporter"},"scenes":[{"nodes":[2],"name":"blockbench_export"}],"scene":0,"nodes":[{"name":"sphere","mesh":0},{"name":"torus","mesh":1},{"children":[0,1]}],"bufferViews":[{"buffer":0,"byteOffset":0,"byteLength":3168,"target":34962,"byteStride":12},{"buffer":0,"byteOffset":3168,"byteLength":3168,"target":34962,"byteStride":12},{"buffer":0,"byteOffset":6336,"byteLength":2112,"target":34962,"byteStride":8},{"buffer":0,"byteOffset":8448,"byteLength":720,"target":34963},{"buffer":0,"byteOffset":9168,"byteLength":6144,"target":34962,"byteStride":12},{"buffer":0,"byteOffset":15312,"byteLength":6144,"target":34962,"byteStride":12},{"buffer":0,"byteOffset":21456,"byteLength":4096,"target":34962,"byteStride":8},{"buffer":0,"byteOffset":25552,"byteLength":1536,"target":34963}],"buffers":[{"byteLength":27088,"uri":"data:application/octet-stream;base64,"}],"accessors":[{"bufferView":0,"componentType":5126,"count":264,"max":[0.125,0.125,0.125],"min":[-0.125,-0.125,-0.125],"type":"VEC3"},{"bufferView":1,"componentType":5126,"count":264,"max":[0.9659256339073181,0.9659256339073181,0.9659256339073181],"min":[-0.9659256339073181,-0.9659256339073181,-0.9659256339073181],"type":"VEC3"},{"bufferView":2,"componentType":5126,"count":264,"max":[0.16746249794960022,0.16176247596740723],"min":[0,0],"type":"VEC2"},{"bufferView":3,"componentType":5123,"count":360,"max":[263],"min":[0],"type":"SCALAR"},{"bufferView":4,"componentType":5126,"count":512,"max":[0.75,0.25,0.75],"min":[-0.75,-0.25,-0.75],"type":"VEC3"},{"bufferView":5,"componentType":5126,"count":512,"max":[0.9423685669898987,0.9003793597221375,0.9423685669898987],"min":[-0.9423685669898987,-0.9003793597221375,-0.9423685669898987],"type":"VEC3"},{"bufferView":6,"componentType":5126,"count":512,"max":[0.1740500032901764,0.0972750186920166],"min":[0,0],"type":"VEC2"},{"bufferView":7,"componentType":5123,"count":768,"max":[511],"min":[0],"type":"SCALAR"}],"materials":[{"pbrMetallicRoughness":{"metallicFactor":0,"roughnessFactor":1},"alphaMode":"MASK","alphaCutoff":0.05,"doubleSided":true},{"pbrMetallicRoughness":{"metallicFactor":0,"roughnessFactor":1},"alphaMode":"MASK","alphaCutoff":0.05,"doubleSided":true}],"meshes":[{"primitives":[{"mode":4,"attributes":{"POSITION":0,"NORMAL":1,"TEXCOORD_0":2},"indices":3,"material":0}]},{"primitives":[{"mode":4,"attributes":{"POSITION":4,"NORMAL":5,"TEXCOORD_0":6},"indices":7,"material":1}]}]}