{"asset":{"version":"2.0","generator":"Blockbench 4.12.6 glTF exporter"},"scenes":[{"nodes":[5],"name":"blockbench_export"}],"scene":0,"nodes":[{"rotation":[0,0,-0.3826834323650898,0.9238795325112867],"translation":[-0.0625,-0.015625,0.25],"name":"Right Tail","mesh":0},{"rotation":[0.7071067811865475,0,0,0.7071067811865476],"translation":[0,0.0625,0],"name":"Body","mesh":1},{"rotation":[0,0,0.7223639620597555,0.6915130557822694],"translation":[-0.0625,0.046875,0],"name":"Left Wing","mesh":2},{"rotation":[0,0,0.3826834323650898,0.9238795325112867],"translation":[0.0625,-0.015625,0.25],"name":"Left Tail","mesh":3},{"rotation":[0,0,-0.7223639620597555,0.6915130557822694],"translation":[0.0625,0.046875,0],"name":"Right Wing","mesh":4},{"children":[0,1,2,3,4]}],"bufferViews":[{"buffer":0,"byteOffset":0,"byteLength":864,"target":34962,"byteStride":12},{"buffer":0,"byteOffset":864,"byteLength":864,"target":34962,"byteStride":12},{"buffer":0,"byteOffset":1728,"byteLength":576,"target":34962,"byteStride":8},{"buffer":0,"byteOffset":2304,"byteLength":144,"target":34963},{"buffer":0,"byteOffset":2448,"byteLength":3168,"target":34962,"byteStride":12},{"buffer":0,"byteOffset":5616,"byteLength":3168,"target":34962,"byteStride":12},{"buffer":0,"byteOffset":8784,"byteLength":2112,"target":34962,"byteStride":8},{"buffer":0,"byteOffset":10896,"byteLength":720,"target":34963},{"buffer":0,"byteOffset":11616,"byteLength":864,"target":34962,"byteStride":12},{"buffer":0,"byteOffset":12480,"byteLength":864,"target":34962,"byteStride":12},{"buffer":0,"byteOffset":13344,"byteLength":576,"target":34962,"byteStride":8},{"buffer":0,"byteOffset":13920,"byteLength":144,"target":34963},{"buffer":0,"byteOffset":14064,"byteLength":864,"target":34962,"byteStride":12},{"buffer":0,"byteOffset":14928,"byteLength":864,"target":34962,"byteStride":12},{"buffer":0,"byteOffset":15792,"byteLength":576,"target":34962,"byteStride":8},{"buffer":0,"byteOffset":16368,"byteLength":144,"target":34963},{"buffer":0,"byteOffset":16512,"byteLength":864,"target":34962,"byteStride":12},{"buffer":0,"byteOffset":17376,"byteLength":864,"target":34962,"byteStride":12},{"buffer":0,"byteOffset":18240,"byteLength":576,"target":34962,"byteStride":8},{"buffer":0,"byteOffset":18816,"byteLength":144,"target":34963}],"buffers":[{"byteLength":18960,"uri":"data:application/octet-stream;base64,"}],"accessors":[{"bufferView":0,"componentType":5126,"count":72,"max":[0.015625,0.375,0.4375],"min":[-0.015625,0.0625,-0.1875],"type":"VEC3"},{"bufferView":1,"componentType":5126,"count":72,"max":[0.9992082118988037,0.9191451668739319,0.9061829447746277],"min":[-0.9992080926895142,-0.9844273924827576,-0.3939189910888672],"type":"VEC3"},{"bufferView":2,"componentType":5126,"count":72,"max":[0.4728631377220154,0.5274875164031982],"min":[0.0018124999478459358,0],"type":"VEC2"},{"bufferView":3,"componentType":5123,"count":72,"max":[71],"min":[0],"type":"SCALAR"},{"bufferView":4,"componentType":5126,"count":264,"max":[0.0625,0.3125,0.0625],"min":[-0.0625,-0.3125,-0.0625],"type":"VEC3"},{"bufferView":5,"componentType":5126,"count":264,"max":[0.9985672235488892,0.5981605052947998,0.9985672235488892],"min":[-0.9985672235488892,-0.5981605052947998,-0.9985672235488892],"type":"VEC3"},{"bufferView":6,"componentType":5126,"count":264,"max":[0.796875,0.8022437691688538],"min":[0.00223249988630414,0],"type":"VEC2"},{"bufferView":7,"componentType":5123,"count":360,"max":[263],"min":[0],"type":"SCALAR"},{"bufferView":8,"componentType":5126,"count":72,"max":[0.03125,0.4375,0.75],"min":[-0.03125,0,-0.5],"type":"VEC3"},{"bufferView":9,"componentType":5126,"count":72,"max":[0.9990609288215637,0.9578262567520142,0.8320502638816833],"min":[-0.9990609288215637,-0.9922778606414795,-0.2873478829860687],"type":"VEC3"},{"bufferView":10,"componentType":5126,"count":72,"max":[0.3146543800830841,0.5137609243392944],"min":[0,0],"type":"VEC2"},{"bufferView":11,"componentType":5123,"count":72,"max":[71],"min":[0],"type":"SCALAR"},{"bufferView":12,"componentType":5126,"count":72,"max":[0.015625,0.375,0.4375],"min":[-0.015625,0.0625,-0.1875],"type":"VEC3"},{"bufferView":13,"componentType":5126,"count":72,"max":[0.9992082118988037,0.9191451668739319,0.9061829447746277],"min":[-0.9992080926895142,-0.9844273924827576,-0.3939189910888672],"type":"VEC3"},{"bufferView":14,"componentType":5126,"count":72,"max":[0.4728631377220154,0.5274875164031982],"min":[0.0018124999478459358,0],"type":"VEC2"},{"bufferView":15,"componentType":5123,"count":72,"max":[71],"min":[0],"type":"SCALAR"},{"bufferView":16,"componentType":5126,"count":72,"max":[0.03125,0.4375,0.75],"min":[-0.03125,0,-0.5],"type":"VEC3"},{"bufferView":17,"componentType":5126,"count":72,"max":[0.9990609288215637,0.9578262567520142,0.8320502638816833],"min":[-0.9990609288215637,-0.9922778606414795,-0.2873478829860687],"type":"VEC3"},{"bufferView":18,"componentType":5126,"count":72,"max":[0.8168087601661682,0.7775218486785889],"min":[0.003503750078380108,0],"type":"VEC2"},{"bufferView":19,"componentType":5123,"count":72,"max":[71],"min":[0],"type":"SCALAR"}],"materials":[{"pbrMetallicRoughness":{"metallicFactor":0,"roughnessFactor":1,"baseColorTexture":{"index":0}},"alphaMode":"MASK","alphaCutoff":0.05,"doubleSided":true},{"pbrMetallicRoughness":{"metallicFactor":0,"roughnessFactor":1,"baseColorTexture":{"index":1}},"alphaMode":"MASK","alphaCutoff":0.05,"doubleSided":true},{"pbrMetallicRoughness":{"metallicFactor":0,"roughnessFactor":1,"baseColorTexture":{"index":2}},"alphaMode":"MASK","alphaCutoff":0.05,"doubleSided":true},{"pbrMetallicRoughness":{"metallicFactor":0,"roughnessFactor":1,"baseColorTexture":{"index":3}},"alphaMode":"MASK","alphaCutoff":0.05,"doubleSided":true},{"pbrMetallicRoughness":{"metallicFactor":0,"roughnessFactor":1,"baseColorTexture":{"index":4}},"alphaMode":"MASK","alphaCutoff":0.05,"doubleSided":true}],"textures":[{"sampler":0,"source":0,"name":"right tail.png"},{"sampler":1,"source":1,"name":"player_fighter1.png"},{"sampler":2,"source":2,"name":"left wing.png"},{"sampler":3,"source":3,"name":"left tail.png"},{"sampler":4,"source":4,"name":"right wing.png"}],"samplers":[{"magFilter":9728,"minFilter":9728,"wrapS":33071,"wrapT":33071},{"magFilter":9728,"minFilter":9728,"wrapS":33071,"wrapT":33071},{"magFilter":9728,"minFilter":9728,"wrapS":33071,"wrapT":33071},{"magFilter":9728,"minFilter":9728,"wrapS":33071,"wrapT":33071},{"magFilter":9728,"minFilter":9728,"wrapS":33071,"wrapT":33071}],"images":[{"mimeType":"image/png","uri":"data:image/png;base64,"},{"mimeType":"image/png","uri":"data:image/png;base64,"},{"mimeType":"image/png","uri":"data:image/png;base64,"},{"mimeType":"image/png","uri":"data:image/png;base64,"},{"mimeType":"image/png","uri":"data:image/png;base64,"}],"meshes":[{"primitives":[{"mode":4,"attributes":{"POSITION":0,"NORMAL":1,"TEXCOORD_0":2},"indices":3,"material":0}]},{"primitives":[{"mode":4,"attributes":{"POSITION":4,"NORMAL":5,"TEXCOORD_0":6},"indices":7,"material":1}]},{"primitives":[{"mode":4,"attributes":{"POSITION":8,"NORMAL":9,"TEXCOORD_0":10},"indices":11,"material":2}]},{"primitives":[{"mode":4,"attributes":{"POSITION":12,"NORMAL":13,"TEXCOORD_0":14},"indices":15,"material":3}]},{"primitives":[{"mode":4,"attributes":{"POSITION":16,"NORMAL":17,"TEXCOORD_0":18},"indices":19,"material":4}]}]}