{"asset":{"version":"2.0","generator":"Blockbench 4.12.6 glTF exporter"},"scenes":[{"nodes":[5],"name":"blockbench_export"}],"scene":0,"nodes":[{"rotation":[0.7071067811865475,0,0,0.7071067811865476],"translation":[0,0,-0.15625],"name":"pyramid","mesh":0},{"rotation":[0.3535533905932738,-0.14644660940672624,0.3535533905932738,0.8535533905932737],"translation":[-0.0625,0.0625,0.125],"name":"pyramid","mesh":1},{"rotation":[0.8535533905932737,0.3535533905932738,-0.14644660940672627,0.35355339059327384],"translation":[0.0625,-0.0625,0.125],"name":"pyramid","mesh":2},{"rotation":[0.8535533905932737,-0.3535533905932738,0.14644660940672627,0.35355339059327384],"translation":[-0.0625,-0.0625,0.125],"name":"pyramid","mesh":3},{"rotation":[0.3535533905932738,0.14644660940672624,-0.3535533905932738,0.8535533905932737],"translation":[0.0625,0.0625,0.125],"name":"pyramid","mesh":4},{"children":[0,1,2,3,4]}],"bufferViews":[{"buffer":0,"byteOffset":0,"byteLength":288,"target":34962,"byteStride":12},{"buffer":0,"byteOffset":288,"byteLength":288,"target":34962,"byteStride":12},{"buffer":0,"byteOffset":576,"byteLength":192,"target":34962,"byteStride":8},{"buffer":0,"byteOffset":768,"byteLength":48,"target":34963},{"buffer":0,"byteOffset":816,"byteLength":288,"target":34962,"byteStride":12},{"buffer":0,"byteOffset":1104,"byteLength":288,"target":34962,"byteStride":12},{"buffer":0,"byteOffset":1392,"byteLength":192,"target":34962,"byteStride":8},{"buffer":0,"byteOffset":1584,"byteLength":48,"target":34963},{"buffer":0,"byteOffset":1632,"byteLength":288,"target":34962,"byteStride":12},{"buffer":0,"byteOffset":1920,"byteLength":288,"target":34962,"byteStride":12},{"buffer":0,"byteOffset":2208,"byteLength":192,"target":34962,"byteStride":8},{"buffer":0,"byteOffset":2400,"byteLength":48,"target":34963},{"buffer":0,"byteOffset":2448,"byteLength":288,"target":34962,"byteStride":12},{"buffer":0,"byteOffset":2736,"byteLength":288,"target":34962,"byteStride":12},{"buffer":0,"byteOffset":3024,"byteLength":192,"target":34962,"byteStride":8},{"buffer":0,"byteOffset":3216,"byteLength":48,"target":34963},{"buffer":0,"byteOffset":3264,"byteLength":288,"target":34962,"byteStride":12},{"buffer":0,"byteOffset":3552,"byteLength":288,"target":34962,"byteStride":12},{"buffer":0,"byteOffset":3840,"byteLength":192,"target":34962,"byteStride":8},{"buffer":0,"byteOffset":4032,"byteLength":48,"target":34963}],"buffers":[{"byteLength":4080,"uri":"data:application/octet-stream;base64,"}],"accessors":[{"bufferView":0,"componentType":5126,"count":24,"max":[0.0625,0.34375,0.0625],"min":[-0.0625,-0.34375,-0.0625],"type":"VEC3"},{"bufferView":1,"componentType":5126,"count":24,"max":[0.9922778606414795,0.3162277638912201,0.9922778606414795],"min":[-0.9922778606414795,-0.12403473258018494,-0.9922778606414795],"type":"VEC3"},{"bufferView":2,"componentType":5126,"count":24,"max":[0.625,0.5896250009536743],"min":[0,0],"type":"VEC2"},{"bufferView":3,"componentType":5123,"count":24,"max":[23],"min":[0],"type":"SCALAR"},{"bufferView":4,"componentType":5126,"count":24,"max":[0.03125,0.40625,0.03125],"min":[-0.03125,0,-0.03125],"type":"VEC3"},{"bufferView":5,"componentType":5126,"count":24,"max":[0.9950371980667114,0.09950371831655502,0.9950371980667114],"min":[-0.9950371980667114,-0.3162277638912201,-0.9950371980667114],"type":"VEC3"},{"bufferView":6,"componentType":5126,"count":24,"max":[0.625,0.625],"min":[0,0],"type":"VEC2"},{"bufferView":7,"componentType":5123,"count":24,"max":[23],"min":[0],"type":"SCALAR"},{"bufferView":8,"componentType":5126,"count":24,"max":[0.03125,0.40625,0.03125],"min":[-0.03125,0,-0.03125],"type":"VEC3"},{"bufferView":9,"componentType":5126,"count":24,"max":[0.9950371980667114,0.09950371831655502,0.9950371980667114],"min":[-0.9950371980667114,-0.3162277638912201,-0.9950371980667114],"type":"VEC3"},{"bufferView":10,"componentType":5126,"count":24,"max":[0.625,0.625],"min":[0,0],"type":"VEC2"},{"bufferView":11,"componentType":5123,"count":24,"max":[23],"min":[0],"type":"SCALAR"},{"bufferView":12,"componentType":5126,"count":24,"max":[0.03125,0.40625,0.03125],"min":[-0.03125,0,-0.03125],"type":"VEC3"},{"bufferView":13,"componentType":5126,"count":24,"max":[0.9950371980667114,0.09950371831655502,0.9950371980667114],"min":[-0.9950371980667114,-0.3162277638912201,-0.9950371980667114],"type":"VEC3"},{"bufferView":14,"componentType":5126,"count":24,"max":[0.625,0.625],"min":[0,0],"type":"VEC2"},{"bufferView":15,"componentType":5123,"count":24,"max":[23],"min":[0],"type":"SCALAR"},{"bufferView":16,"componentType":5126,"count":24,"max":[0.03125,0.40625,0.03125],"min":[-0.03125,0,-0.03125],"type":"VEC3"},{"bufferView":17,"componentType":5126,"count":24,"max":[0.9950371980667114,0.09950371831655502,0.9950371980667114],"min":[-0.9950371980667114,-0.3162277638912201,-0.9950371980667114],"type":"VEC3"},{"bufferView":18,"componentType":5126,"count":24,"max":[0.625,0.625],"min":[0,0],"type":"VEC2"},{"bufferView":19,"componentType":5123,"count":24,"max":[23],"min":[0],"type":"SCALAR"}],"materials":[{"pbrMetallicRoughness":{"metallicFactor":0,"roughnessFactor":1},"alphaMode":"MASK","alphaCutoff":0.05,"doubleSided":true},{"pbrMetallicRoughness":{"metallicFactor":0,"roughnessFactor":1},"alphaMode":"MASK","alphaCutoff":0.05,"doubleSided":true}],"meshes":[{"primitives":[{"mode":4,"attributes":{"POSITION":0,"NORMAL":1,"TEXCOORD_0":2},"indices":3,"material":0}]},{"primitives":[{"mode":4,"attributes":{"POSITION":4,"NORMAL":5,"TEXCOORD_0":6},"indices":7,"material":1}]},{"primitives":[{"mode":4,"attributes":{"POSITION":8,"NORMAL":9,"TEXCOORD_0":10},"indices":11,"material":1}]},{"primitives":[{"mode":4,"attributes":{"POSITION":12,"NORMAL":13,"TEXCOORD_0":14},"indices":15,"material":1}]},{"primitives":[{"mode":4,"attributes":{"POSITION":16,"NORMAL":17,"TEXCOORD_0":18},"indices":19,"material":1}]}]}