# Made in Blockbench 4.12.6
mtllib orb.mtl

o sphere
v 0 -0.3125 0
v 0 0.3125 0
v 0.041866875 0.270633125 0.15625
v 0.072515625 0.15625 0.270633125
v 0.083734375 0 0.3125
v 0.072515625 -0.15625 0.270633125
v 0.041866875 -0.270633125 0.15625
v 0.114383125 0.270633125 0.114383125
v 0.198116875 0.15625 0.198116875
v 0.228765625 0 0.228765625
v 0.198116875 -0.15625 0.198116875
v 0.114383125 -0.270633125 0.114383125
v 0.15625 0.270633125 0.041866875
v 0.270633125 0.15625 0.072515625
v 0.3125 0 0.083734375
v 0.270633125 -0.15625 0.072515625
v 0.15625 -0.270633125 0.041866875
v 0.15625 0.270633125 -0.041866875
v 0.270633125 0.15625 -0.072515625
v 0.3125 0 -0.083734375
v 0.270633125 -0.15625 -0.072515625
v 0.15625 -0.270633125 -0.041866875
v 0.114383125 0.270633125 -0.114383125
v 0.198116875 0.15625 -0.198116875
v 0.228765625 0 -0.228765625
v 0.198116875 -0.15625 -0.198116875
v 0.114383125 -0.270633125 -0.114383125
v 0.041866875 0.270633125 -0.15625
v 0.072515625 0.15625 -0.270633125
v 0.083734375 0 -0.3125
v 0.072515625 -0.15625 -0.270633125
v 0.041866875 -0.270633125 -0.15625
v -0.041866875 0.270633125 -0.15625
v -0.072515625 0.15625 -0.270633125
v -0.083734375 0 -0.3125
v -0.072515625 -0.15625 -0.270633125
v -0.041866875 -0.270633125 -0.15625
v -0.114383125 0.270633125 -0.114383125
v -0.198116875 0.15625 -0.198116875
v -0.228765625 0 -0.228765625
v -0.198116875 -0.15625 -0.198116875
v -0.114383125 -0.270633125 -0.114383125
v -0.15625 0.270633125 -0.041866875
v -0.270633125 0.15625 -0.072515625
v -0.3125 0 -0.083734375
v -0.270633125 -0.15625 -0.072515625
v -0.15625 -0.270633125 -0.041866875
v -0.15625 0.270633125 0.041866875
v -0.270633125 0.15625 0.072515625
v -0.3125 0 0.083734375
v -0.270633125 -0.15625 0.072515625
v -0.15625 -0.270633125 0.041866875
v -0.114383125 0.270633125 0.114383125
v -0.198116875 0.15625 0.198116875
v -0.228765625 0 0.228765625
v -0.198116875 -0.15625 0.198116875
v -0.114383125 -0.270633125 0.114383125
v -0.041866875 0.270633125 0.15625
v -0.072515625 0.15625 0.270633125
v -0.083734375 0 0.3125
v -0.072515625 -0.15625 0.270633125
v -0.041866875 -0.270633125 0.15625
vt 0 0.8382375
vt 0.0837375 0.8382375
vt 0.04186875 1
vt 0.03065 1
vt 0 0.8382375
vt 0.1450375 0.8382375
vt 0.1143875 1
vt 0.0112125 1
vt 0 0.8382375
vt 0.1674625 0.8382375
vt 0.15625 1
vt 0 1
vt 0.0112125 0.8382375
vt 0.15625 0.8382375
vt 0.1674625 1
vt 0 1
vt 0.03065 0.8382375
vt 0.1143875 0.8382375
vt 0.1450375 1
vt 0.0837375 1
vt 0 1
vt 0.04186875 0.8382375
vt 0 0.8382375
vt 0.0837375 0.8382375
vt 0.04186875 1
vt 0.03065 1
vt 0 0.8382375
vt 0.1450375 0.8382375
vt 0.1143875 1
vt 0.0112125 1
vt 0 0.8382375
vt 0.1674625 0.8382375
vt 0.15625 1
vt 0 1
vt 0.0112125 0.8382375
vt 0.15625 0.8382375
vt 0.1674625 1
vt 0 1
vt 0.03065 0.8382375
vt 0.1143875 0.8382375
vt 0.1450375 1
vt 0.0837375 1
vt 0 1
vt 0.04186875 0.8382375
vt 0 0.8382375
vt 0.0837375 0.8382375
vt 0.04186875 1
vt 0.03065 1
vt 0 0.8382375
vt 0.1450375 0.8382375
vt 0.1143875 1
vt 0.0112125 1
vt 0 0.8382375
vt 0.1674625 0.8382375
vt 0.15625 1
vt 0 1
vt 0.0112125 0.8382375
vt 0.15625 0.8382375
vt 0.1674625 1
vt 0 1
vt 0.03065 0.8382375
vt 0.1143875 0.8382375
vt 0.1450375 1
vt 0.0837375 1
vt 0 1
vt 0.04186875 0.8382375
vt 0 0.8382375
vt 0.0837375 0.8382375
vt 0.04186875 1
vt 0.03065 1
vt 0 0.8382375
vt 0.1450375 0.8382375
vt 0.1143875 1
vt 0.0112125 1
vt 0 0.8382375
vt 0.1674625 0.8382375
vt 0.15625 1
vt 0 1
vt 0.0112125 0.8382375
vt 0.15625 0.8382375
vt 0.1674625 1
vt 0 1
vt 0.03065 0.8382375
vt 0.1143875 0.8382375
vt 0.1450375 1
vt 0.0837375 1
vt 0 1
vt 0.04186875 0.8382375
vt 0 0.8382375
vt 0.0837375 0.8382375
vt 0.04186875 1
vt 0.03065 1
vt 0 0.8382375
vt 0.1450375 0.8382375
vt 0.1143875 1
vt 0.0112125 1
vt 0 0.8382375
vt 0.1674625 0.8382375
vt 0.15625 1
vt 0 1
vt 0.0112125 0.8382375
vt 0.15625 0.8382375
vt 0.1674625 1
vt 0 1
vt 0.03065 0.8382375
vt 0.1143875 0.8382375
vt 0.1450375 1
vt 0.0837375 1
vt 0 1
vt 0.04186875 0.8382375
vt 0 0.8382375
vt 0.0837375 0.8382375
vt 0.04186875 1
vt 0.03065 1
vt 0 0.8382375
vt 0.1450375 0.8382375
vt 0.1143875 1
vt 0.0112125 1
vt 0 0.8382375
vt 0.1674625 0.8382375
vt 0.15625 1
vt 0 1
vt 0.0112125 0.8382375
vt 0.15625 0.8382375
vt 0.1674625 1
vt 0 1
vt 0.03065 0.8382375
vt 0.1143875 0.8382375
vt 0.1450375 1
vt 0.0837375 1
vt 0 1
vt 0.04186875 0.8382375
vt 0 0.8382375
vt 0.0837375 0.8382375
vt 0.04186875 1
vt 0.03065 1
vt 0 0.8382375
vt 0.1450375 0.8382375
vt 0.1143875 1
vt 0.0112125 1
vt 0 0.8382375
vt 0.1674625 0.8382375
vt 0.15625 1
vt 0 1
vt 0.0112125 0.8382375
vt 0.15625 0.8382375
vt 0.1674625 1
vt 0 1
vt 0.03065 0.8382375
vt 0.1143875 0.8382375
vt 0.1450375 1
vt 0.0837375 1
vt 0 1
vt 0.04186875 0.8382375
vt 0 0.8382375
vt 0.0837375 0.8382375
vt 0.04186875 1
vt 0.03065 1
vt 0 0.8382375
vt 0.1450375 0.8382375
vt 0.1143875 1
vt 0.0112125 1
vt 0 0.8382375
vt 0.1674625 0.8382375
vt 0.15625 1
vt 0 1
vt 0.0112125 0.8382375
vt 0.15625 0.8382375
vt 0.1674625 1
vt 0 1
vt 0.03065 0.8382375
vt 0.1143875 0.8382375
vt 0.1450375 1
vt 0.0837375 1
vt 0 1
vt 0.04186875 0.8382375
vt 0 0.8382375
vt 0.0837375 0.8382375
vt 0.04186875 1
vt 0.03065 1
vt 0 0.8382375
vt 0.1450375 0.8382375
vt 0.1143875 1
vt 0.0112125 1
vt 0 0.8382375
vt 0.1674625 0.8382375
vt 0.15625 1
vt 0 1
vt 0.0112125 0.8382375
vt 0.15625 0.8382375
vt 0.1674625 1
vt 0 1
vt 0.03065 0.8382375
vt 0.1143875 0.8382375
vt 0.1450375 1
vt 0.0837375 1
vt 0 1
vt 0.04186875 0.8382375
vt 0 0.8382375
vt 0.0837375 0.8382375
vt 0.04186875 1
vt 0.03065 1
vt 0 0.8382375
vt 0.1450375 0.8382375
vt 0.1143875 1
vt 0.0112125 1
vt 0 0.8382375
vt 0.1674625 0.8382375
vt 0.15625 1
vt 0 1
vt 0.0112125 0.8382375
vt 0.15625 0.8382375
vt 0.1674625 1
vt 0 1
vt 0.03065 0.8382375
vt 0.1143875 0.8382375
vt 0.1450375 1
vt 0.0837375 1
vt 0 1
vt 0.04186875 0.8382375
vt 0 0.8382375
vt 0.0837375 0.8382375
vt 0.04186875 1
vt 0.03065 1
vt 0 0.8382375
vt 0.1450375 0.8382375
vt 0.1143875 1
vt 0.0112125 1
vt 0 0.8382375
vt 0.1674625 0.8382375
vt 0.15625 1
vt 0 1
vt 0.0112125 0.8382375
vt 0.15625 0.8382375
vt 0.1674625 1
vt 0 1
vt 0.03065 0.8382375
vt 0.1143875 0.8382375
vt 0.1450375 1
vt 0.0837375 1
vt 0 1
vt 0.04186875 0.8382375
vt 0 0.8382375
vt 0.0837375 0.8382375
vt 0.04186875 1
vt 0.03065 1
vt 0 0.8382375
vt 0.1450375 0.8382375
vt 0.1143875 1
vt 0.0112125 1
vt 0 0.8382375
vt 0.1674625 0.8382375
vt 0.15625 1
vt 0 1
vt 0.0112125 0.8382375
vt 0.15625 0.8382375
vt 0.1674625 1
vt 0 1
vt 0.03065 0.8382375
vt 0.1143875 0.8382375
vt 0.1450375 1
vt 0.0837375 1
vt 0 1
vt 0.04186875 0.8382375
vn 0.12940799222383853 0.9659261476473069 0.22414336670940765
vn 0.3535547979747847 0.7071064127308838 0.6123720485978031
vn 0.48296521947586135 0.2588193880873821 0.8365148660524248
vn 0.4829645309899875 -0.2588194407937956 0.8365152472446684
vn 0.35355074090652333 -0.707106995299142 0.6123737182501122
vn 0.12940799222383853 -0.9659261476473069 0.22414336670940765
vn 0.22414336670940765 0.9659261476473069 0.12940799222383853
vn 0.6123734269718887 0.7071048211145086 0.353555593783105
vn 0.8365150241777791 0.2588187066607101 0.4829653107701701
vn 0.8365154298315405 -0.25881865395283266 0.48296463640705345
vn 0.6123761056700002 -0.7071042385416424 0.3535521192708211
vn 0.22414336670940765 -0.9659261476473069 0.12940799222383853
vn 0.25881797045799404 0.9659261142385607 0
vn 0.7071067811865476 0.7071067811865476 0
vn 0.9659261142385607 0.258817970457994 0
vn 0.9659261142385608 -0.2588179704579941 0
vn 0.7071067811865476 -0.7071067811865476 0
vn 0.25881797045799404 -0.9659261142385607 0
vn 0.22414336670940765 0.9659261476473069 -0.12940799222383853
vn 0.6123720485978031 0.7071064127308838 -0.3535547979747847
vn 0.8365148660524248 0.2588193880873821 -0.48296521947586135
vn 0.8365152472446684 -0.2588194407937956 -0.4829645309899875
vn 0.6123737182501122 -0.707106995299142 -0.35355074090652333
vn 0.22414336670940765 -0.9659261476473069 -0.12940799222383853
vn 0.12940799222383853 0.9659261476473069 -0.22414336670940765
vn 0.353555593783105 0.7071048211145086 -0.6123734269718887
vn 0.4829653107701701 0.2588187066607101 -0.8365150241777791
vn 0.48296463640705345 -0.25881865395283266 -0.8365154298315405
vn 0.3535521192708211 -0.7071042385416424 -0.6123761056700002
vn 0.12940799222383853 -0.9659261476473069 -0.22414336670940765
vn 0 0.9659261142385607 -0.25881797045799404
vn 0 0.7071067811865476 -0.7071067811865476
vn 0 0.258817970457994 -0.9659261142385607
vn 0 -0.2588179704579941 -0.9659261142385608
vn 0 -0.7071067811865476 -0.7071067811865476
vn 0 -0.9659261142385607 -0.25881797045799404
vn -0.12940799222383853 0.9659261476473069 -0.22414336670940765
vn -0.3535547979747847 0.7071064127308838 -0.6123720485978031
vn -0.48296521947586135 0.2588193880873821 -0.8365148660524248
vn -0.4829645309899875 -0.2588194407937956 -0.8365152472446684
vn -0.35355074090652333 -0.707106995299142 -0.6123737182501122
vn -0.12940799222383853 -0.9659261476473069 -0.22414336670940765
vn -0.22414336670940765 0.9659261476473069 -0.12940799222383853
vn -0.6123734269718887 0.7071048211145086 -0.353555593783105
vn -0.8365150241777791 0.2588187066607101 -0.4829653107701701
vn -0.8365154298315405 -0.25881865395283266 -0.48296463640705345
vn -0.6123761056700002 -0.7071042385416424 -0.3535521192708211
vn -0.22414336670940765 -0.9659261476473069 -0.12940799222383853
vn -0.25881797045799404 0.9659261142385607 0
vn -0.7071067811865476 0.7071067811865476 0
vn -0.9659261142385607 0.258817970457994 0
vn -0.9659261142385608 -0.2588179704579941 0
vn -0.7071067811865476 -0.7071067811865476 0
vn -0.25881797045799404 -0.9659261142385607 0
vn -0.22414336670940765 0.9659261476473069 0.12940799222383853
vn -0.6123720485978031 0.7071064127308838 0.3535547979747847
vn -0.8365148660524248 0.2588193880873821 0.48296521947586135
vn -0.8365152472446684 -0.2588194407937956 0.4829645309899875
vn -0.6123737182501122 -0.707106995299142 0.35355074090652333
vn -0.22414336670940765 -0.9659261476473069 0.12940799222383853
vn -0.12940799222383853 0.9659261476473069 0.22414336670940765
vn -0.353555593783105 0.7071048211145086 0.6123734269718887
vn -0.4829653107701701 0.2588187066607101 0.8365150241777791
vn -0.48296463640705345 -0.25881865395283266 0.8365154298315405
vn -0.3535521192708211 -0.7071042385416424 0.6123761056700002
vn -0.12940799222383853 -0.9659261476473069 0.22414336670940765
vn 0 0.9659261142385607 0.25881797045799404
vn 0 0.7071067811865476 0.7071067811865476
vn 0 0.258817970457994 0.9659261142385607
vn 0 -0.2588179704579941 0.9659261142385608
vn 0 -0.7071067811865476 0.7071067811865476
vn 0 -0.9659261142385607 0.25881797045799404
usemtl none
f 3/1/1 8/2/1 2/3/1
f 3/4/2 4/5/2 9/6/2 8/7/2
f 4/8/3 5/9/3 10/10/3 9/11/3
f 5/12/4 6/13/4 11/14/4 10/15/4
f 6/16/5 7/17/5 12/18/5 11/19/5
f 12/20/6 7/21/6 1/22/6
f 8/23/7 13/24/7 2/25/7
f 8/26/8 9/27/8 14/28/8 13/29/8
f 9/30/9 10/31/9 15/32/9 14/33/9
f 10/34/10 11/35/10 16/36/10 15/37/10
f 11/38/11 12/39/11 17/40/11 16/41/11
f 17/42/12 12/43/12 1/44/12
f 13/45/13 18/46/13 2/47/13
f 13/48/14 14/49/14 19/50/14 18/51/14
f 14/52/15 15/53/15 20/54/15 19/55/15
f 15/56/16 16/57/16 21/58/16 20/59/16
f 16/60/17 17/61/17 22/62/17 21/63/17
f 22/64/18 17/65/18 1/66/18
f 18/67/19 23/68/19 2/69/19
f 18/70/20 19/71/20 24/72/20 23/73/20
f 19/74/21 20/75/21 25/76/21 24/77/21
f 20/78/22 21/79/22 26/80/22 25/81/22
f 21/82/23 22/83/23 27/84/23 26/85/23
f 27/86/24 22/87/24 1/88/24
f 23/89/25 28/90/25 2/91/25
f 23/92/26 24/93/26 29/94/26 28/95/26
f 24/96/27 25/97/27 30/98/27 29/99/27
f 25/100/28 26/101/28 31/102/28 30/103/28
f 26/104/29 27/105/29 32/106/29 31/107/29
f 32/108/30 27/109/30 1/110/30
f 28/111/31 33/112/31 2/113/31
f 28/114/32 29/115/32 34/116/32 33/117/32
f 29/118/33 30/119/33 35/120/33 34/121/33
f 30/122/34 31/123/34 36/124/34 35/125/34
f 31/126/35 32/127/35 37/128/35 36/129/35
f 37/130/36 32/131/36 1/132/36
f 33/133/37 38/134/37 2/135/37
f 33/136/38 34/137/38 39/138/38 38/139/38
f 34/140/39 35/141/39 40/142/39 39/143/39
f 35/144/40 36/145/40 41/146/40 40/147/40
f 36/148/41 37/149/41 42/150/41 41/151/41
f 42/152/42 37/153/42 1/154/42
f 38/155/43 43/156/43 2/157/43
f 38/158/44 39/159/44 44/160/44 43/161/44
f 39/162/45 40/163/45 45/164/45 44/165/45
f 40/166/46 41/167/46 46/168/46 45/169/46
f 41/170/47 42/171/47 47/172/47 46/173/47
f 47/174/48 42/175/48 1/176/48
f 43/177/49 48/178/49 2/179/49
f 43/180/50 44/181/50 49/182/50 48/183/50
f 44/184/51 45/185/51 50/186/51 49/187/51
f 45/188/52 46/189/52 51/190/52 50/191/52
f 46/192/53 47/193/53 52/194/53 51/195/53
f 52/196/54 47/197/54 1/198/54
f 48/199/55 53/200/55 2/201/55
f 48/202/56 49/203/56 54/204/56 53/205/56
f 49/206/57 50/207/57 55/208/57 54/209/57
f 50/210/58 51/211/58 56/212/58 55/213/58
f 51/214/59 52/215/59 57/216/59 56/217/59
f 57/218/60 52/219/60 1/220/60
f 53/221/61 58/222/61 2/223/61
f 53/224/62 54/225/62 59/226/62 58/227/62
f 54/228/63 55/229/63 60/230/63 59/231/63
f 55/232/64 56/233/64 61/234/64 60/235/64
f 56/236/65 57/237/65 62/238/65 61/239/65
f 62/240/66 57/241/66 1/242/66
f 58/243/67 3/244/67 2/245/67
f 58/246/68 59/247/68 4/248/68 3/249/68
f 59/250/69 60/251/69 5/252/69 4/253/69
f 60/254/70 61/255/70 6/256/70 5/257/70
f 61/258/71 62/259/71 7/260/71 6/261/71
f 7/262/72 62/263/72 1/264/72